<?xml version="1.0" encoding="utf-8"?>
<!-- Generator: Adobe Illustrator 25.4.1, SVG Export Plug-In . SVG Version: 6.00 Build 0)  -->
<svg version="1.1" id="Capa_1" xmlns="http://www.w3.org/2000/svg" xmlns:xlink="http://www.w3.org/1999/xlink" x="0px" y="0px"
	 viewBox="0 0 239 50" style="enable-background:new 0 0 239 50;" xml:space="preserve">
<style type="text/css">
	.st0{fill:#F26322;}
	.st1{fill:#FFFFFF;}
	.st2{clip-path:url(#SVGID_00000178205337891049564370000011910426286226237116_);}
	.st3{fill-rule:evenodd;clip-rule:evenodd;fill:#7F54B3;}
	.st4{fill-rule:evenodd;clip-rule:evenodd;fill:#FFFFFF;}
	.st5{fill:#F71963;}
	.st6{fill:#002E6D;}
	.st7{fill:#FFE800;}
	.st8{fill:#1F0047;}
	.st9{fill:#E2066F;}
	.st10{fill:#A0DBE8;}
	.st11{fill:#525353;}
	.st12{fill:#AA9678;}
	.st13{fill:#C0B098;}
	.st14{fill:#786453;}
	.st15{fill:#8B7460;}
	.st16{fill:none;}
	.st17{fill:#BBBCBD;}
	.st18{fill:#676A6A;}
	.st19{fill:#909393;}
	.st20{fill:#E2DDDB;}
	.st21{fill:#FBB040;}
	.st22{fill:#9F2255;}
</style>
<g id="SVGRepo_iconCarrier">
	<g>
		<path class="st3" d="M73.97,1H8.34C4.18,1,0.82,4.4,0.85,8.52v25.05c0,4.15,3.36,7.52,7.52,7.52h31.09L53.67,49l-3.23-7.91h23.54
			c4.15,0,7.52-3.36,7.52-7.52V8.52C81.49,4.36,78.13,1,73.97,1z M6.95,6.8C6.03,6.87,5.34,7.2,4.87,7.82
			c-0.46,0.59-0.63,1.35-0.53,2.21c1.95,12.36,3.76,20.7,5.44,25.02c0.66,1.58,1.42,2.34,2.31,2.27c1.38-0.1,3.03-2.01,4.98-5.74
			c1.02-2.11,2.6-5.27,4.75-9.49c1.78,6.23,4.22,10.91,7.29,14.04c0.86,0.89,1.75,1.29,2.6,1.22c0.76-0.07,1.35-0.46,1.75-1.19
			c0.33-0.63,0.46-1.35,0.4-2.18c-0.2-3,0.1-7.19,0.92-12.56c0.86-5.54,1.91-9.53,3.2-11.9c0.26-0.49,0.36-0.99,0.33-1.58
			c-0.07-0.76-0.4-1.38-1.02-1.88s-1.32-0.73-2.08-0.66c-0.96,0.07-1.68,0.53-2.18,1.45c-2.04,3.73-3.49,9.76-4.35,18.13
			c-1.25-3.16-2.31-6.89-3.13-11.27c-0.36-1.95-1.25-2.87-2.7-2.77c-0.99,0.07-1.81,0.73-2.47,1.98l-7.22,13.75
			c-1.19-4.78-2.31-10.62-3.33-17.51C9.59,7.46,8.63,6.67,6.95,6.8z M70.48,9.18c2.34,0.49,4.09,1.75,5.27,3.82
			c1.06,1.78,1.58,3.92,1.58,6.49c0,3.4-0.86,6.49-2.57,9.33c-1.98,3.3-4.55,4.95-7.75,4.95c-0.56,0-1.15-0.07-1.78-0.2
			c-2.34-0.49-4.09-1.75-5.27-3.82c-1.05-1.81-1.58-3.99-1.58-6.53c0-3.4,0.86-6.49,2.57-9.3c2.01-3.3,4.58-4.95,7.75-4.95
			C69.26,8.98,69.85,9.04,70.48,9.18z M69.09,27.01c1.22-1.09,2.04-2.7,2.51-4.88c0.13-0.76,0.23-1.58,0.23-2.44
			c0-0.96-0.2-1.98-0.59-3c-0.49-1.29-1.15-1.98-1.95-2.14c-1.19-0.23-2.34,0.43-3.43,2.04c-0.89,1.25-1.45,2.57-1.75,3.92
			c-0.16,0.76-0.23,1.58-0.23,2.41c0,0.96,0.2,1.98,0.59,3c0.49,1.29,1.15,1.98,1.95,2.14C67.25,28.23,68.14,27.87,69.09,27.01z
			 M55.08,13c-1.19-2.08-2.97-3.33-5.27-3.82c-0.63-0.13-1.22-0.2-1.78-0.2c-3.16,0-5.74,1.65-7.75,4.95
			c-1.71,2.8-2.57,5.9-2.57,9.3c0,2.54,0.53,4.71,1.58,6.53c1.19,2.08,2.93,3.33,5.27,3.82c0.63,0.13,1.22,0.2,1.78,0.2
			c3.2,0,5.77-1.65,7.75-4.95c1.71-2.84,2.57-5.93,2.57-9.33C56.67,16.92,56.14,14.78,55.08,13z M50.93,22.13
			c-0.46,2.18-1.29,3.79-2.51,4.88c-0.96,0.86-1.85,1.22-2.67,1.06c-0.79-0.16-1.45-0.86-1.95-2.14c-0.4-1.02-0.59-2.04-0.59-3
			c0-0.82,0.07-1.65,0.23-2.41c0.3-1.35,0.86-2.67,1.75-3.92c1.09-1.62,2.24-2.27,3.43-2.04c0.79,0.16,1.45,0.86,1.95,2.14
			c0.4,1.02,0.59,2.04,0.59,3C51.16,20.55,51.09,21.37,50.93,22.13z"/>
		<path class="st4" d="M89.83,12.7c-2.21,2.18-3.3,4.95-3.3,8.31c0,3.59,1.09,6.53,3.26,8.74c2.18,2.21,5.01,3.33,8.54,3.33
			c1.02,0,2.18-0.16,3.43-0.53v-5.34c-1.15,0.33-2.14,0.49-3,0.49c-1.75,0-3.13-0.59-4.19-1.75C93.52,24.77,93,23.19,93,21.18
			c0-1.88,0.53-3.43,1.55-4.62c1.05-1.22,2.34-1.81,3.92-1.81c1.02,0,2.11,0.16,3.3,0.49V9.9c-1.09-0.3-2.31-0.43-3.59-0.43
			C94.81,9.44,92.04,10.53,89.83,12.7z M112.71,9.44c-3.03,0-5.41,1.02-7.12,3.03c-1.71,2.01-2.54,4.85-2.54,8.47
			c0,3.92,0.86,6.92,2.54,9c1.68,2.08,4.15,3.13,7.38,3.13c3.13,0,5.54-1.05,7.22-3.13s2.54-5.01,2.54-8.77
			c0-3.76-0.86-6.66-2.57-8.7C118.41,10.46,115.94,9.44,112.71,9.44z M115.31,26.58c-0.59,0.92-1.48,1.38-2.6,1.38
			c-1.06,0-1.85-0.46-2.41-1.38c-0.56-0.92-0.82-2.77-0.82-5.57c0-4.32,1.09-6.46,3.3-6.46c2.31,0,3.49,2.18,3.49,6.56
			C116.24,23.81,115.91,25.66,115.31,26.58z M139.02,10.07l-1.19,5.04c-0.3,1.29-0.59,2.6-0.86,3.96l-0.66,3.49
			c-0.63-3.49-1.48-7.65-2.57-12.49h-7.65l-2.87,22.45h5.74l1.55-15.46l3.92,15.46h4.09l3.76-15.43l1.62,15.43h6l-3.03-22.45H139.02
			z M166.48,10.07l-1.19,5.04c-0.3,1.29-0.59,2.6-0.86,3.96l-0.66,3.49c-0.63-3.49-1.48-7.65-2.57-12.49h-7.65l-2.87,22.45h5.74
			l1.55-15.46l3.92,15.46h4.09l3.73-15.43l1.62,15.43h6l-3.03-22.45H166.48z M185.14,23.65h5.37V19h-5.37v-4.12h6.2V10.1h-12.26
			v22.45h12.3v-4.78h-6.23V23.65z M208.45,20.09c0.63-1.02,0.96-2.08,0.96-3.16c0-2.11-0.82-3.79-2.47-5.01
			c-1.65-1.22-3.92-1.85-6.76-1.85h-7.06v22.45h6.07V22.3h0.1l4.91,10.22h6.4l-4.85-10.12C206.9,21.87,207.82,21.11,208.45,20.09z
			 M199.15,19.73v-5.34c1.45,0.03,2.47,0.26,3.1,0.73c0.63,0.46,0.92,1.19,0.92,2.24C203.17,18.9,201.82,19.69,199.15,19.73z
			 M212.96,12.7c-2.21,2.18-3.3,4.95-3.3,8.31c0,3.59,1.09,6.53,3.26,8.74c2.18,2.21,5.01,3.33,8.54,3.33
			c1.02,0,2.18-0.16,3.43-0.53v-5.34c-1.15,0.33-2.14,0.49-3,0.49c-1.75,0-3.13-0.59-4.19-1.75c-1.06-1.19-1.58-2.77-1.58-4.78
			c0-1.88,0.53-3.43,1.55-4.62c1.06-1.22,2.34-1.81,3.92-1.81c1.02,0,2.11,0.16,3.3,0.49V9.9c-1.09-0.3-2.31-0.43-3.59-0.43
			C217.97,9.44,215.17,10.53,212.96,12.7z M232.64,27.7v-4.09h5.37v-4.65h-5.37v-4.12h6.23v-4.78h-12.26v22.45h12.3v-4.78h-6.26
			V27.7z"/>
	</g>
</g>
</svg>
